inDegrees=no
num_controls=7
num_derivatives=13
num_iterations=167
num_multipliers=7
num_parameters=0
num_slacks=7
num_states=26
objective=5.305374
objective_accelerations=0.706452
objective_balance=0.023856
objective_effort=0.176268
objective_height=4.324492
objective_ligament=0.074305
solver_duration=1969.637028
status=Solve_Succeeded
success=true
DataType=double
version=3
OpenSimVersion=4.4-2022-07-23-0e9fedc
endheader
time	/jointset/ground_pelvis/pelvis_tilt/value	/jointset/ground_pelvis/pelvis_tx/value	/jointset/ground_pelvis/pelvis_ty/value	/jointset/hip_l/hip_flexion_l/value	/jointset/hip_l/hip_adduction_l/value	/jointset/hip_l/hip_rotation_l/value	/jointset/back/lumbar_extension/value	/jointset/patellofemoral_l/patellar_flexion_l/value	/jointset/knee_l/knee_flexion_l/value	/jointset/knee_l/knee_adduction_l/value	/jointset/knee_l/knee_rotation_l/value	/jointset/ankle_l/ankle_angle_l/value	/jointset/subtalar_l/subtalar_angle_l/value	/jointset/ground_pelvis/pelvis_tilt/speed	/jointset/ground_pelvis/pelvis_tx/speed	/jointset/ground_pelvis/pelvis_ty/speed	/jointset/hip_l/hip_flexion_l/speed	/jointset/hip_l/hip_adduction_l/speed	/jointset/hip_l/hip_rotation_l/speed	/jointset/back/lumbar_extension/speed	/jointset/patellofemoral_l/patellar_flexion_l/speed	/jointset/knee_l/knee_flexion_l/speed	/jointset/knee_l/knee_adduction_l/speed	/jointset/knee_l/knee_rotation_l/speed	/jointset/ankle_l/ankle_angle_l/speed	/jointset/subtalar_l/subtalar_angle_l/speed	/forceset/tau_hip_flexion_l	/forceset/tau_hip_adduction_l	/forceset/tau_hip_rotation_l	/forceset/tau_knee_flexion_l	/forceset/tau_ankle_angle_l	/forceset/tau_subtalar_angle_l	/forceset/tau_lumbar_extension	lambda_cid13_p0	lambda_cid13_p1	lambda_cid13_p2	lambda_cid13_p3	lambda_cid13_p4	lambda_cid13_p5	lambda_cid14_p0	/jointset/ground_pelvis/pelvis_tilt/accel	/jointset/ground_pelvis/pelvis_tx/accel	/jointset/ground_pelvis/pelvis_ty/accel	/jointset/hip_l/hip_flexion_l/accel	/jointset/hip_l/hip_adduction_l/accel	/jointset/hip_l/hip_rotation_l/accel	/jointset/back/lumbar_extension/accel	/jointset/patellofemoral_l/patellar_flexion_l/accel	/jointset/knee_l/knee_flexion_l/accel	/jointset/knee_l/knee_adduction_l/accel	/jointset/knee_l/knee_rotation_l/accel	/jointset/ankle_l/ankle_angle_l/accel	/jointset/subtalar_l/subtalar_angle_l/accel	gamma_cid13_p0	gamma_cid13_p1	gamma_cid13_p2	gamma_cid13_p3	gamma_cid13_p4	gamma_cid13_p5	gamma_cid14_p0
0.5	-0.2210065893880317	0.04059636170007586	0.7765045896535325	0.970483598803661	-0.3656882191917296	-0.005537755543972187	-0.3995062989100241	0.9424094632609455	0.9424094632609163	-0.04037389260666573	-0.1745223951842316	0.3197730226669981	0.1630495435076523	-0.7594462604974179	-0.1630681548445238	-0.5050862412075998	2.348238904144721	0.03339215526044122	0.5375279668774011	-0.3103060139617483	1.955877877833353	1.955877877833366	0.2917488520538439	2.950905026407242e-05	0.5298595996719924	0.2678608538354202	-0.1048151707437455	0.02193579370223833	0.0001003834638191307	-0.189699181860158	-0.01736471582084688	0.02313215703740185	0.116528463120004	-29.01645167191471	-5.326134870727019	0.9797957242526916	1.299126515953128	-439.6392130126268	-73.23118138052877	-5.469545317413662	0.2586011077446698	0.3401740463559211	-0.4583709752130911	-1.091982260433732	0.1166737061893511	-0.7245335720412927	1.376976773325023	-1.556894584238097	-1.556894584238096	-0.2076386569704567	0.01331812816260424	-0.8799562530471385	0.1019912639670964	-4.536522772192949e-07	-8.85699815903951e-07	5.923414530608796e-06	2.2762837273785e-07	-1.241029863309348e-06	-1.694307229954617e-06	-7.899142095458862e-07
0.51	-0.2285860053763456	0.03898300629600313	0.7714320902040168	0.9939063503840287	-0.3653510957135737	-0.0001938082496755179	-0.4025413725301726	0.9618866914086462	0.9618866914086772	-0.0374757515822843	-0.174521906530276	0.3250259741743977	0.1657287344642866	-0.7563311139917458	-0.1595798357951431	-0.5092962824801427	2.335986986605967	0.03403033453548725	0.5312104706769324	-0.2966790150885502	1.939287147128333	1.939287147128341	0.2878759586114258	5.240473995751739e-05	0.5206572094602521	0.2679302300877561	-0.1095415166878175	0.02313379810214704	-0.0005408843432645396	-0.191762937281642	-0.01915613471870258	0.02355609556267639	0.1201193388036835	-29.7341999029138	-5.313924519275631	0.8971433292508919	1.430625815049098	-442.8613848892509	-73.21606142087658	-4.819589243718569	0.3538153068528189	0.3566746994975411	-0.3849578247626561	-1.340513866089041	0.03620283008052241	-0.5937551491594198	1.36001569133364	-1.752098930676029	-1.752098930676677	-0.4776475113596761	-0.004511980056724561	-0.9514427010390332	-0.04824790652939499	-4.309948537077801e-07	-4.962803525252108e-07	5.856085299483247e-06	2.734083820432409e-07	-1.184824457614533e-06	-1.304444473098403e-06	-7.578399543287075e-07
0.52	-0.2361311011226313	0.03740523685547779	0.7663209629174783	1.017196839315908	-0.3650078278842852	0.005085284581597895	-0.4054392853121863	0.9811896249258952	0.9811896249259702	-0.03461644605707871	-0.1745214463732816	0.3301846893205196	0.1684070874409649	-0.7525822120910948	-0.1559509621350435	-0.5128118086121847	2.321786374447498	0.03462102548726278	0.5245570742720785	-0.2828738463346883	1.921018951741628	1.921018951741633	0.2839817522297226	2.380965247407039e-05	0.5110123274164492	0.2676932578442439	-0.1142678626318862	0.02433180250207014	-0.001182152150662348	-0.1938266927031242	-0.02094755361655217	0.0239800340879791	0.1237102144873636	-30.44654712970837	-5.310863252454482	0.8253227800343099	1.522092622526827	-446.0054719565128	-73.30785897567119	-4.217260203056414	0.3853521867405605	0.3682849684996449	-0.319467947112939	-1.481721184376738	0.1071760415352347	-0.791713612918347	1.412610749457845	-1.892387520574933	-1.892387520574932	-0.2119012448274902	0.003019972727202069	-0.9684546194597125	0.04072156479743633	-4.10364419140599e-07	-1.274684715155388e-07	5.825091659248607e-06	3.172762842560678e-07	-1.133416284914118e-06	-9.300564404371356e-07	-7.325667240019124e-07
0.53	-0.2436357517123281	0.03586440745398678	0.7611781654634814	1.040336004998799	-0.3646586730081428	0.01029693573006855	-0.4081982771968454	1.000301822428457	1.000301822428495	-0.03179639406079397	-0.1745210087571663	0.3352449381791308	0.1710818113957328	-0.7482476951937657	-0.1521958775058758	-0.5156267802185307	2.305732695557104	0.03520675766249786	0.5177227580524549	-0.2689134112529258	1.901154200330336	1.901154200330334	0.2800246874311713	4.631529433158374e-05	0.5009734085471707	0.2672031847396963	-0.1188788321493472	0.02507686848004834	-0.001699130310852317	-0.1962426146794308	-0.02253342629453502	0.02438079006126078	0.1271851203952838	-31.10585690592752	-5.301455610410654	0.7461312678867832	1.617250686237992	-449.292309043714	-73.49462518059138	-3.661738664586857	0.4725102609789562	0.3820443721816436	-0.2445977549096757	-1.714347386240516	0.03289856547785199	-0.6375269534244297	1.389427789269144	-2.073327359020675	-2.073327359021639	-0.488160081150348	0.0003611887405914063	-1.03122319692469	-0.101827342022219	-3.873838352536771e-07	2.020719780463244e-07	5.73719865735571e-06	3.534812376349111e-07	-1.075665650360866e-06	-5.70621566659949e-07	-7.036293049835117e-07
0.54	-0.2510940553691045	0.03436171373119868	0.7560108010959183	1.06330520266381	-0.3643039354582567	0.0154385964509533	-0.4108173311503407	1.019207410735381	1.019207410735391	-0.0290160229092187	-0.1745206470188747	0.3402028753137963	0.1737500435006669	-0.7433128255064329	-0.1483238263944632	-0.5177251913254353	2.287792770871923	0.0357375602361465	0.5105589887552276	-0.2548862601018098	1.879697112614473	1.879697112614464	0.276045583281361	8.634089215302178e-06	0.4905499826273803	0.2663948878774945	-0.1234898016668182	0.02582193445800907	-0.002216108470838332	-0.19865853665574	-0.02411929897252361	0.02478154603451201	0.1306600263031955	-31.76081308360156	-5.300609257836348	0.6772160133549391	1.673765859038804	-452.5187722070508	-73.78490573133728	-3.151951809240556	0.505422744741334	0.3916782649485763	-0.1761558472246431	-1.858970343334114	0.0961901212179595	-0.8576042284391124	1.425953963328579	-2.21085478148898	-2.21085478148897	-0.2163091150793023	-0.009017396667572399	-1.045356029562183	-0.02292318673347011	-3.618030861619354e-07	4.881631843042282e-07	5.586353170223891e-06	3.812080348570065e-07	-1.010897823970433e-06	-2.27730613350256e-07	-6.706378899658877e-07
0.55	-0.2585001526258641	0.03289825125275442	0.7508260431318532	1.086085931265834	-0.3639438817992975	0.02050748077864703	-0.4132957603834326	1.037890779179846	1.037890779179816	-0.02627548772859463	-0.1745204956704555	0.3450548288227432	0.1764089754254637	-0.7378076233642259	-0.144356121536474	-0.5191028754003453	2.268047106621027	0.03626906447543645	0.503181185627111	-0.2408004332779727	1.856723175159009	1.856723175158994	0.2720454179997963	1.128607214375083e-05	0.4797820198838296	0.2653402895181047	-0.1281295008838762	0.02663831723394114	-0.002605114302900298	-0.2011352630362152	-0.02575715057940271	0.02488741787832554	0.1341121664458178	-32.47231619911389	-5.133697840157642	0.5497302323677384	1.84497819196116	-455.8535279647562	-73.78640982099859	-2.686549152530321	0.5879030481695412	0.4012780261411503	-0.1002408885272371	-2.078279012813428	0.03013568465317666	-0.6839652721708679	1.39977002780418	-2.378542867025788	-2.378542867026818	-0.4941901320313528	0.004429778608374975	-1.101303901420881	-0.1551680177527117	-3.366082520567839e-07	7.525508575666415e-07	5.438597739843778e-06	4.0538108093615e-07	-9.46313528151002e-07	9.980497845305276e-08	-6.400299621212798e-07
